<svg width="430" height="177" viewBox="0 0 430 177" fill="none" xmlns="http://www.w3.org/2000/svg">
<path d="M139.121 176.5C144.621 97.0001 290.121 97.5001 295.621 176.5H139.121Z" fill="#828281"/>
<path d="M253 0.500031C240.5 21 258.291 45.8123 255 63C250.5 86.5 235.5 80.5 246 117.5C235.711 115.065 230.013 114.26 220 114C216.5 85.5 225.5 81.5 235.5 70C251.643 51.4354 233.5 14.5 253 0.500031Z" fill="#828281"/>
<path d="M327.5 22C312 41.5 313.5 50 310 69C305.268 94.6878 280.5 86 274 130C265.693 124.728 260.87 122.42 252 119.5C257 92 270.5 90.5 284.5 80.5C309 63 297 42.5 327.5 22Z" fill="#828281"/>
<path d="M386.5 67C375.5 74.5 368.5 85 351 106.5C333.5 128 311 113.5 292 148C286.846 140.529 283 136.5 276.5 132C305 99 316.938 116.307 342 98.5C361 85 364 72.5 386.5 67Z" fill="#828281"/>
<path d="M172 3.50003C179 43 202.5 39 202.5 71C202.5 88.1173 203.5 97.5 217 114C206.387 114.12 200.975 114.767 190.5 117C174.5 90.5 185.195 81.724 186 67.5C187.5 41 164 35 172 3.50003Z" fill="#828281"/>
<path d="M95.9999 28C105 48.5 131 53.9038 146.5 70C162 86.0963 151 99 186.5 118C176.299 121.33 171.045 123.741 162.5 129C148 117 140.933 108.078 139.5 95.5C135.057 56.5 102.5 63 95.9999 28Z" fill="#828281"/>
<path d="M34.5 72.5C60.5 94 88 85 107.5 101C127 117 123.5 122 160 130.5C152.484 136.327 148.774 140.059 143 147.5C110.5 137 110.087 129.565 102.5 118.5C83.5 90.7919 51.5 100 34.5 72.5Z" fill="#828281"/>
<path d="M0.5 134C32.5 140.5 69 130 87 139.5C105 149 102.5 150 141.5 150C137.633 157.214 135.996 161.488 134 169.5C97.5 171.5 88.8127 160.649 81 154C57.5 134 23.5 149.5 0.5 134Z" fill="#828281"/>
<path d="M386.5 67C375.5 74.5 368.5 85 351 106.5C333.5 128 311 113.5 292 148C286.846 140.529 283 136.5 276.5 132C305 99 316.938 116.307 342 98.5C361 85 364 72.5 386.5 67Z" fill="#828281"/>
<path d="M430 120.5C388.5 136.5 393.5 141.809 373 151.5C352.5 161.191 341.5 145.5 301.5 171.5C299.578 162.954 297.951 158.457 294 151C325.5 129.5 345.087 143.89 367.5 139C395 133 386.5 125 430 120.5Z" fill="#828281"/>
</svg>
